<svg xmlns="http://www.w3.org/2000/svg" width="32" height="32" fill="none" viewBox="0 0 32 32"><defs/><path fill="#000" fill-rule="evenodd" d="M16.1314 21.067L16.0938 22.4933H14.3298L14.2922 20.429C14.2922 18.5208 15.4654 17.2383 16.921 15.6472C17.2119 15.3292 17.514 14.9989 17.8204 14.6488C18.0025 14.4348 18.1847 14.2268 18.3641 14.0219C19.6639 12.5381 20.8231 11.2147 20.8231 8.90617C20.8231 5.67828 18.571 3.98928 15.756 3.98928C13.8043 3.98928 11.7775 4.96515 10.5389 6.80429L9 5.49062C10.6515 3.20107 13.0912 2 15.8686 2C19.7721 2 22.9625 4.58981 22.9625 8.8311C22.9625 12.0214 21.311 13.9357 19.5094 15.7748C19.2875 16.0072 19.062 16.2352 18.838 16.4615C17.4707 17.8433 16.1636 19.1642 16.1314 21.067ZM16.9946 28.3485C16.9946 29.2869 16.244 30 15.3056 30C14.3673 30 13.6166 29.2869 13.6166 28.3485C13.6166 27.4102 14.3673 26.6971 15.3056 26.6971C16.244 26.6971 16.9946 27.4102 16.9946 28.3485Z" clip-rule="evenodd"/></svg>